<mxfile host="app.diagrams.net" agent="Mozilla/5.0 (Windows NT 10.0; Win64; x64) AppleWebKit/537.36 (KHTML, like Gecko) Chrome/136.0.0.0 Safari/537.36" version="27.0.6">
  <diagram id="Mj_O-2V_r87SO9wDCpmO" name="Страница — 1">
    <mxGraphModel dx="1869" dy="574" grid="1" gridSize="10" guides="1" tooltips="1" connect="1" arrows="1" fold="1" page="1" pageScale="1" pageWidth="827" pageHeight="1169" math="0" shadow="0">
      <root>
        <mxCell id="0" />
        <mxCell id="1" parent="0" />
        <mxCell id="2" value="Водій" style="shape=umlActor;" parent="1" vertex="1">
          <mxGeometry x="420" y="20" width="30" height="60" as="geometry" />
        </mxCell>
        <mxCell id="3" value="Система автовокзалу" style="shape=umlActor;" parent="1" vertex="1">
          <mxGeometry x="800" y="460" width="30" height="60" as="geometry" />
        </mxCell>
        <mxCell id="4" value="Відкрити застосунок" style="ellipse;whiteSpace=wrap;html=1;" parent="1" vertex="1">
          <mxGeometry x="190" y="90" width="190" height="60" as="geometry" />
        </mxCell>
        <mxCell id="5" value="Перейти до розкладу" style="ellipse;whiteSpace=wrap;html=1;" parent="1" vertex="1">
          <mxGeometry x="-60" y="150" width="190" height="60" as="geometry" />
        </mxCell>
        <mxCell id="6" value="Обрати рейс" style="ellipse;whiteSpace=wrap;html=1;" parent="1" vertex="1">
          <mxGeometry x="60" y="290" width="190" height="60" as="geometry" />
        </mxCell>
        <mxCell id="7" value="Натиснути &#39;Почати рейс&#39;" style="ellipse;whiteSpace=wrap;html=1;" parent="1" vertex="1">
          <mxGeometry x="270" y="320" width="190" height="60" as="geometry" />
        </mxCell>
        <mxCell id="8" value="Фіксувати час виїзду" style="ellipse;whiteSpace=wrap;html=1;" parent="1" vertex="1">
          <mxGeometry x="300" y="430" width="190" height="60" as="geometry" />
        </mxCell>
        <mxCell id="9" value="Оновити статус рейсу" style="ellipse;whiteSpace=wrap;html=1;" parent="1" vertex="1">
          <mxGeometry x="480" y="500" width="190" height="60" as="geometry" />
        </mxCell>
        <mxCell id="10" value="Рейс відсутній" style="ellipse;whiteSpace=wrap;html=1;" parent="1" vertex="1">
          <mxGeometry x="-70" y="440" width="190" height="60" as="geometry" />
        </mxCell>
        <mxCell id="11" value="Система недоступна" style="ellipse;whiteSpace=wrap;html=1;" parent="1" vertex="1">
          <mxGeometry x="510" y="310" width="190" height="60" as="geometry" />
        </mxCell>
        <mxCell id="20" value="include" style="endArrow=none;dashed=0;" parent="1" source="2" target="4" edge="1">
          <mxGeometry as="geometry" />
        </mxCell>
        <mxCell id="21" value="include" style="endArrow=none;dashed=0;" parent="1" source="4" target="5" edge="1">
          <mxGeometry as="geometry" />
        </mxCell>
        <mxCell id="22" value="include" style="endArrow=none;dashed=0;" parent="1" source="5" target="6" edge="1">
          <mxGeometry as="geometry" />
        </mxCell>
        <mxCell id="23" value="include" style="endArrow=none;dashed=0;" parent="1" source="6" target="7" edge="1">
          <mxGeometry as="geometry" />
        </mxCell>
        <mxCell id="24" value="include" style="endArrow=none;dashed=0;" parent="1" source="7" target="8" edge="1">
          <mxGeometry as="geometry" />
        </mxCell>
        <mxCell id="25" value="include" style="endArrow=none;dashed=0;" parent="1" source="8" target="9" edge="1">
          <mxGeometry as="geometry" />
        </mxCell>
        <mxCell id="26" value="extend" style="endArrow=none;dashed=1;" parent="1" source="6" target="10" edge="1">
          <mxGeometry as="geometry" />
        </mxCell>
        <mxCell id="27" value="extend" style="endArrow=none;dashed=1;" parent="1" source="7" target="11" edge="1">
          <mxGeometry as="geometry" />
        </mxCell>
        <mxCell id="28" value="include" style="endArrow=none;dashed=0;" parent="1" source="3" target="9" edge="1">
          <mxGeometry as="geometry" />
        </mxCell>
      </root>
    </mxGraphModel>
  </diagram>
</mxfile>
